<?xml version="1.0" encoding="iso-8859-1"?>
<!-- Uploaded to: SVG Repo, www.svgrepo.com, Generator: SVG Repo Mixer Tools -->
<!DOCTYPE svg PUBLIC "-//W3C//DTD SVG 1.1//EN" "http://www.w3.org/Graphics/SVG/1.1/DTD/svg11.dtd">
<svg fill="#000" height="32px" width="32px" version="1.1" id="Capa_1" xmlns="http://www.w3.org/2000/svg" xmlns:xlink="http://www.w3.org/1999/xlink" 
	 viewBox="0 0 56 56" xml:space="preserve">
<g>
	<path d="M30.852,19.618l13.219-9.013l-4.864-7.123C37.719,1.302,35.243,0,32.585,0c-1.612,0-3.166,0.479-4.495,1.387
		c-1.758,1.2-2.945,3.021-3.342,5.126c-0.397,2.105,0.046,4.233,1.247,5.991L30.852,19.618z"/>
	<path d="M51.614,21.65L45.2,12.257L31.98,21.27l6.421,9.403c1.488,2.18,3.964,3.482,6.623,3.482c1.612,0,3.166-0.479,4.495-1.387
		C53.161,30.281,54.101,25.293,51.614,21.65z"/>
	<path d="M31.36,34.868c2.864-3.355,2.464-8.415-0.891-11.279c-1.441-1.229-3.282-1.907-5.186-1.907
		c-2.354,0-4.575,1.02-6.093,2.798l-5.563,6.517L25.289,41.98L31.36,34.868z"/>
	<path d="M12.327,32.52l-7.42,8.693c-2.864,3.355-2.464,8.415,0.891,11.279c1.441,1.229,3.283,1.907,5.186,1.907
		c2.354,0,4.575-1.02,6.093-2.798l6.912-8.098L12.327,32.52z"/>
	<path d="M30.703,38.717L18.598,52.899c-0.132,0.155-0.278,0.293-0.418,0.439c0.01,0.001,0.019,0.004,0.029,0.005l11.67,1.39
		l2.224-15.848L30.703,38.717z"/>
	<path d="M41.946,40.056L34.09,39.12l-2.224,15.848l8.189,0.975C40.371,55.981,40.687,56,40.999,56c0,0,0,0,0.001,0
		c4.05,0,7.465-3.033,7.944-7.055C49.465,44.565,46.326,40.577,41.946,40.056z"/>
</g>
</svg>