<svg xmlns="http://www.w3.org/2000/svg" xmlns:xlink="http://www.w3.org/1999/xlink" width="500" zoomAndPan="magnify" viewBox="0 0 375 374.999991" height="500" preserveAspectRatio="xMidYMid meet" version="1.0"><defs><g/><clipPath id="944e1c6984"><path d="M 108.277344 67 L 265.777344 67 L 265.777344 223.363281 L 108.277344 223.363281 Z M 108.277344 67 " clip-rule="nonzero"/></clipPath><clipPath id="6ac754c6d6"><path d="M 103 233 L 110 233 L 110 238.574219 L 103 238.574219 Z M 103 233 " clip-rule="nonzero"/></clipPath><clipPath id="b1b68e1126"><path d="M 102.140625 231 L 105 231 L 105 235 L 102.140625 235 Z M 102.140625 231 " clip-rule="nonzero"/></clipPath><clipPath id="1fc7e1b442"><path d="M 119 233 L 127 233 L 127 238.574219 L 119 238.574219 Z M 119 233 " clip-rule="nonzero"/></clipPath><clipPath id="923ec869cc"><path d="M 135 233 L 143 233 L 143 238.574219 L 135 238.574219 Z M 135 233 " clip-rule="nonzero"/></clipPath><clipPath id="0015c3fdf4"><path d="M 152 233 L 159 233 L 159 238.574219 L 152 238.574219 Z M 152 233 " clip-rule="nonzero"/></clipPath><clipPath id="8df86e9928"><path d="M 168 233 L 175 233 L 175 238.574219 L 168 238.574219 Z M 168 233 " clip-rule="nonzero"/></clipPath><clipPath id="765bfbccb1"><path d="M 184 233 L 191 233 L 191 238.574219 L 184 238.574219 Z M 184 233 " clip-rule="nonzero"/></clipPath><clipPath id="7d7d0a1f83"><path d="M 200 233 L 207 233 L 207 238.574219 L 200 238.574219 Z M 200 233 " clip-rule="nonzero"/></clipPath><clipPath id="fe4d8fda62"><path d="M 216 233 L 223 233 L 223 238.574219 L 216 238.574219 Z M 216 233 " clip-rule="nonzero"/></clipPath><clipPath id="75384bbb2b"><path d="M 232 233 L 239 233 L 239 238.574219 L 232 238.574219 Z M 232 233 " clip-rule="nonzero"/></clipPath><clipPath id="30acd6a97f"><path d="M 248 233 L 255 233 L 255 238.574219 L 248 238.574219 Z M 248 233 " clip-rule="nonzero"/></clipPath><clipPath id="1a4c6426bd"><path d="M 264 233 L 271 233 L 271 238.574219 L 264 238.574219 Z M 264 233 " clip-rule="nonzero"/></clipPath><clipPath id="3f112cdc89"><path d="M 270 231 L 272.390625 231 L 272.390625 235 L 270 235 Z M 270 231 " clip-rule="nonzero"/></clipPath></defs><rect x="-37.5" width="450" fill="#ffffff" y="-37.499999" height="449.999989" fill-opacity="1"/><rect x="-37.5" width="450" fill="#fff4f1" y="-37.499999" height="449.999989" fill-opacity="1"/><path fill="#db7250" d="M 192.242188 89.078125 C 195.226562 87.316406 197.820312 84.859375 199.742188 81.972656 C 200.726562 80.484375 200.324219 78.480469 198.835938 77.492188 C 197.351562 76.507812 195.34375 76.910156 194.355469 78.394531 C 192.976562 80.476562 191.109375 82.242188 188.964844 83.511719 C 185.871094 85.332031 183.949219 88.679688 183.945312 92.304688 C 183.945312 97.511719 185.734375 102.609375 188.984375 106.660156 C 190.417969 108.457031 192.546875 109.460938 194.777344 109.460938 C 195.292969 109.460938 195.808594 109.402344 196.328125 109.296875 C 206.875 107.066406 214.535156 97.613281 214.535156 86.824219 C 214.535156 86.359375 214.515625 85.898438 214.492188 85.445312 C 214.386719 83.660156 212.847656 82.316406 211.074219 82.410156 C 209.292969 82.515625 207.9375 84.042969 208.039062 85.824219 C 208.058594 86.15625 208.066406 86.484375 208.066406 86.824219 C 208.066406 94.578125 202.570312 101.375 194.992188 102.976562 C 194.632812 103.054688 194.261719 102.914062 194.023438 102.621094 C 191.65625 99.667969 190.40625 96.101562 190.40625 92.261719 C 190.40625 90.964844 191.113281 89.742188 192.242188 89.078125 " fill-opacity="1" fill-rule="nonzero"/><g clip-path="url(#944e1c6984)"><path fill="#db7250" d="M 231.175781 213.195312 C 226.777344 216.5625 221.136719 217.847656 215.699219 216.722656 C 211.054688 215.761719 204.625 211.773438 204.625 206.789062 C 204.625 199.71875 212.363281 197.851562 216.460938 197.851562 C 222.390625 197.851562 227.722656 200.625 231.09375 205.46875 C 232.191406 207.046875 233.445312 208.40625 234.816406 209.511719 C 233.808594 210.875 232.589844 212.117188 231.175781 213.195312 Z M 265.316406 191.308594 C 264.542969 184.25 260.78125 177.492188 254.980469 172.769531 C 253.484375 171.550781 251.851562 170.644531 250.273438 169.765625 C 246.21875 167.511719 244.6875 166.390625 244.6875 163.492188 C 244.6875 160.285156 247.300781 157.675781 250.507812 157.675781 C 252.289062 157.675781 253.738281 156.226562 253.738281 154.445312 C 253.738281 152.660156 252.289062 151.210938 250.507812 151.210938 C 243.738281 151.210938 238.226562 156.722656 238.226562 163.492188 C 238.226562 170.464844 243.375 173.328125 247.132812 175.414062 C 248.527344 176.1875 249.847656 176.921875 250.902344 177.78125 C 255.324219 181.382812 258.308594 186.703125 258.886719 192.007812 C 259.308594 195.835938 258.15625 199.632812 255.746094 202.417969 C 253.410156 205.109375 250.109375 206.65625 246.4375 206.78125 C 245.441406 206.820312 244.457031 206.742188 243.496094 206.554688 C 244.132812 204.625 244.519531 202.609375 244.648438 200.550781 C 245.09375 193.089844 242.230469 186 236.777344 180.976562 C 236.621094 180.761719 236.441406 180.566406 236.242188 180.394531 C 231.464844 176.363281 225.730469 173.523438 219.648438 172.207031 C 216.765625 171.578125 213.820312 171.421875 210.902344 171.746094 C 210.605469 171.78125 210.238281 171.800781 209.855469 171.820312 C 216.132812 163.164062 217.550781 151.9375 213.636719 141.792969 C 211.644531 136.644531 210.019531 131.300781 208.792969 125.917969 C 208.65625 125.320312 208.992188 124.945312 209.203125 124.773438 C 209.414062 124.609375 209.839844 124.363281 210.386719 124.621094 C 212.9375 125.816406 215.480469 127.121094 217.945312 128.507812 C 222.65625 131.160156 228.410156 131.339844 233.324219 128.992188 C 234.507812 128.425781 237.59375 126.9375 240.5625 125.40625 C 242.492188 124.414062 243.886719 122.632812 244.386719 120.515625 C 244.886719 118.414062 244.441406 116.203125 243.171875 114.457031 C 240.679688 111.03125 238.757812 108.171875 237.089844 105.390625 C 237.75 103.980469 238.382812 102.558594 238.988281 101.136719 C 240.546875 97.445312 240.230469 93.191406 238.152344 89.753906 C 236.464844 86.960938 234.269531 83.648438 231.628906 79.917969 C 225.03125 70.585938 213.574219 65.878906 202.429688 67.925781 L 202.089844 67.992188 C 190.59375 70.136719 179.777344 75.246094 170.8125 82.757812 C 143.015625 106.050781 127.074219 140.1875 127.074219 176.414062 C 127.074219 185.230469 127.851562 193.449219 129.445312 201.308594 C 120.257812 193.316406 114.792969 181.65625 114.792969 169.308594 C 114.792969 167.519531 113.347656 166.078125 111.566406 166.078125 C 109.777344 166.078125 108.332031 167.519531 108.332031 169.308594 C 108.332031 186.761719 117.796875 203.023438 133.023438 211.746094 C 133.523438 212.035156 134.078125 212.175781 134.632812 212.175781 C 135.335938 212.175781 136.042969 211.945312 136.625 211.488281 C 137.660156 210.675781 138.101562 209.316406 137.738281 208.050781 C 134.90625 198.203125 133.535156 187.855469 133.535156 176.414062 C 133.535156 142.105469 148.636719 109.773438 174.960938 87.710938 C 183.078125 80.910156 192.867188 76.285156 203.269531 74.339844 L 203.605469 74.28125 C 212.277344 72.683594 221.207031 76.363281 226.351562 83.648438 C 228.898438 87.257812 231.011719 90.4375 232.625 93.105469 C 233.632812 94.769531 233.785156 96.832031 233.03125 98.621094 C 232.25 100.46875 231.40625 102.324219 230.527344 104.132812 C 230.058594 105.097656 230.101562 106.234375 230.632812 107.160156 C 232.625 110.621094 234.878906 114.042969 237.949219 118.257812 C 238.152344 118.546875 238.144531 118.835938 238.101562 119.023438 C 238.0625 119.1875 237.941406 119.484375 237.601562 119.664062 C 234.710938 121.15625 231.695312 122.609375 230.539062 123.160156 C 227.515625 124.601562 223.992188 124.496094 221.109375 122.875 C 218.507812 121.414062 215.828125 120.03125 213.132812 118.769531 C 210.492188 117.53125 207.433594 117.902344 205.152344 119.742188 C 202.859375 121.585938 201.847656 124.5 202.492188 127.351562 C 203.785156 133.035156 205.503906 138.679688 207.601562 144.121094 C 210.730469 152.21875 209.613281 161.160156 204.617188 168.035156 C 203.835938 169.109375 203.078125 170.210938 202.328125 171.3125 C 195.796875 170.285156 189.117188 167.753906 185.039062 163.105469 C 192.699219 160.492188 198.160156 153.214844 198.160156 144.75 C 198.160156 144.5625 198.160156 144.371094 198.15625 144.1875 C 198.113281 142.761719 197.152344 141.53125 195.78125 141.152344 C 194.726562 140.863281 193.683594 140.511719 192.671875 140.101562 C 189.65625 134.382812 184.628906 130.085938 178.59375 128.023438 C 178.636719 126.386719 178.882812 123.84375 179.066406 122.554688 C 179.222656 121.449219 178.808594 120.34375 177.953125 119.621094 C 177.105469 118.90625 175.941406 118.671875 174.882812 119.015625 L 174.722656 119.066406 C 156.105469 125.070312 147.921875 146.988281 146.46875 165.5 C 145.148438 182.363281 146.382812 198.894531 150.046875 213.664062 C 149.347656 213.398438 148.671875 213.078125 148.023438 212.699219 C 146.488281 211.800781 144.507812 212.320312 143.605469 213.859375 C 142.707031 215.398438 143.222656 217.378906 144.761719 218.277344 C 147.691406 219.992188 151.035156 220.933594 154.4375 221.003906 C 155.464844 221.003906 156.449219 220.554688 157.070312 219.738281 C 157.699219 218.917969 157.898438 217.847656 157.605469 216.863281 C 153.121094 201.613281 151.5 184.027344 152.910156 166.003906 C 154.066406 151.292969 159.75 134.234375 172.109375 127.234375 C 171.960938 131.828125 173.058594 133.164062 174.984375 133.6875 C 180.46875 135.078125 184.984375 138.820312 187.375 143.964844 C 187.703125 144.664062 188.265625 145.230469 188.976562 145.546875 C 189.820312 145.929688 190.6875 146.28125 191.566406 146.59375 C 190.707031 152.582031 185.730469 157.296875 179.535156 157.652344 C 178.460938 157.714844 177.488281 158.308594 176.941406 159.238281 C 176.390625 160.160156 176.339844 161.304688 176.808594 162.273438 C 181.507812 172.109375 192.90625 176.71875 203.292969 177.964844 C 203.355469 177.980469 203.417969 177.980469 203.484375 177.988281 C 204.84375 178.144531 206.1875 178.25 207.496094 178.300781 C 208.835938 178.351562 210.453125 178.296875 211.609375 178.167969 C 213.835938 177.925781 216.074219 178.039062 218.273438 178.519531 C 223.109375 179.570312 227.6875 181.777344 231.550781 184.90625 C 231.679688 185.070312 231.824219 185.21875 231.984375 185.359375 C 236.273438 189.078125 238.535156 194.476562 238.195312 200.160156 C 238.128906 201.265625 237.964844 202.34375 237.699219 203.390625 C 237.242188 202.90625 236.804688 202.367188 236.398438 201.777344 C 231.800781 195.175781 224.535156 191.386719 216.460938 191.386719 C 207.367188 191.386719 198.160156 196.679688 198.160156 206.789062 C 198.160156 209.238281 198.890625 211.503906 200.097656 213.527344 C 198.476562 214.195312 196.722656 214.546875 194.929688 214.546875 C 193.417969 214.546875 191.933594 214.300781 190.519531 213.8125 C 188.832031 213.234375 186.992188 214.132812 186.414062 215.820312 C 185.835938 217.507812 186.734375 219.347656 188.417969 219.925781 C 190.511719 220.644531 192.699219 221.007812 194.929688 221.007812 C 198.347656 221.007812 201.640625 220.140625 204.582031 218.511719 C 207.460938 220.761719 210.972656 222.34375 214.390625 223.054688 C 216.113281 223.40625 217.851562 223.585938 219.585938 223.585938 C 225.152344 223.585938 230.613281 221.765625 235.105469 218.328125 C 237.269531 216.671875 239.117188 214.695312 240.59375 212.492188 C 242.554688 213.0625 244.582031 213.3125 246.65625 213.238281 C 252.140625 213.054688 257.105469 210.714844 260.625 206.652344 C 264.214844 202.507812 265.921875 196.917969 265.316406 191.308594 " fill-opacity="1" fill-rule="nonzero"/></g><g clip-path="url(#6ac754c6d6)"><path fill="#db7250" d="M 106.914062 233.347656 C 106.078125 233.347656 105.28125 233.898438 105.042969 234.824219 C 105.015625 234.929688 104.964844 234.992188 104.867188 235.039062 C 104.09375 235.4375 103.6875 236.347656 103.898438 237.1875 C 104.132812 238.105469 104.914062 238.664062 105.757812 238.664062 C 106.101562 238.664062 106.453125 238.570312 106.785156 238.371094 C 106.832031 238.34375 106.871094 238.324219 106.914062 238.324219 C 106.945312 238.324219 106.984375 238.335938 107.023438 238.367188 C 107.328125 238.570312 107.671875 238.65625 108.035156 238.664062 C 108.039062 238.664062 108.039062 238.664062 108.042969 238.664062 C 109.070312 238.664062 109.941406 237.875 109.96875 236.78125 C 109.988281 236.011719 109.625 235.421875 108.949219 235.042969 C 108.847656 234.984375 108.792969 234.921875 108.769531 234.808594 C 108.675781 234.40625 108.464844 234.066406 108.148438 233.804688 C 107.773438 233.492188 107.339844 233.347656 106.914062 233.347656 Z M 106.914062 233.347656 " fill-opacity="1" fill-rule="nonzero"/></g><path fill="#db7250" d="M 108.496094 229.46875 C 108.132812 229.46875 107.863281 229.605469 107.652344 229.8125 C 107.003906 230.445312 106.988281 231.824219 107.636719 232.488281 C 107.863281 232.722656 108.144531 232.84375 108.421875 232.84375 C 108.695312 232.84375 108.96875 232.726562 109.183594 232.496094 C 109.75 231.878906 109.816406 230.855469 109.414062 230.136719 C 109.195312 229.746094 108.875 229.492188 108.507812 229.46875 C 108.503906 229.46875 108.5 229.46875 108.496094 229.46875 Z M 108.496094 229.46875 " fill-opacity="1" fill-rule="nonzero"/><path fill="#db7250" d="M 105.414062 229.46875 C 105.199219 229.46875 104.984375 229.539062 104.796875 229.683594 C 104.308594 230.0625 104.160156 230.589844 104.144531 231.023438 C 104.148438 231.710938 104.316406 232.15625 104.65625 232.511719 C 104.875 232.738281 105.140625 232.851562 105.410156 232.851562 C 105.671875 232.851562 105.9375 232.738281 106.152344 232.515625 C 106.839844 231.808594 106.832031 230.484375 106.136719 229.777344 C 105.933594 229.574219 105.671875 229.46875 105.414062 229.46875 Z M 105.414062 229.46875 " fill-opacity="1" fill-rule="nonzero"/><g clip-path="url(#b1b68e1126)"><path fill="#db7250" d="M 103.210938 231.996094 C 102.90625 231.996094 102.613281 232.171875 102.441406 232.503906 C 102.140625 233.082031 102.328125 233.972656 102.832031 234.382812 C 103.015625 234.53125 103.214844 234.605469 103.40625 234.605469 C 103.644531 234.605469 103.875 234.492188 104.054688 234.265625 C 104.234375 234.042969 104.308594 233.773438 104.316406 233.4375 C 104.296875 233.046875 104.195312 232.640625 103.882812 232.308594 C 103.683594 232.097656 103.441406 231.996094 103.210938 231.996094 Z M 103.210938 231.996094 " fill-opacity="1" fill-rule="nonzero"/></g><path fill="#db7250" d="M 110.582031 231.992188 C 110.285156 231.992188 110.046875 232.160156 109.863281 232.398438 C 109.511719 232.847656 109.410156 233.363281 109.578125 233.910156 C 109.714844 234.371094 110.050781 234.601562 110.402344 234.601562 C 110.644531 234.601562 110.898438 234.492188 111.097656 234.269531 C 111.390625 233.945312 111.5 233.558594 111.527344 233.117188 C 111.515625 233.027344 111.507812 232.914062 111.480469 232.808594 C 111.382812 232.421875 111.191406 232.113281 110.78125 232.015625 C 110.710938 232 110.644531 231.992188 110.582031 231.992188 Z M 110.582031 231.992188 " fill-opacity="1" fill-rule="nonzero"/><g clip-path="url(#1fc7e1b442)"><path fill="#db7250" d="M 122.972656 233.347656 C 122.136719 233.347656 121.335938 233.898438 121.101562 234.824219 C 121.074219 234.929688 121.023438 234.992188 120.925781 235.039062 C 120.152344 235.4375 119.746094 236.347656 119.957031 237.1875 C 120.191406 238.105469 120.972656 238.664062 121.816406 238.664062 C 122.160156 238.664062 122.511719 238.570312 122.84375 238.371094 C 122.890625 238.34375 122.929688 238.324219 122.972656 238.324219 C 123.003906 238.324219 123.042969 238.335938 123.082031 238.367188 C 123.386719 238.570312 123.730469 238.65625 124.09375 238.664062 C 124.097656 238.664062 124.097656 238.664062 124.101562 238.664062 C 125.128906 238.664062 126 237.875 126.027344 236.78125 C 126.046875 236.011719 125.683594 235.421875 125.007812 235.042969 C 124.90625 234.984375 124.851562 234.921875 124.828125 234.808594 C 124.734375 234.40625 124.523438 234.066406 124.207031 233.804688 C 123.832031 233.492188 123.398438 233.347656 122.972656 233.347656 Z M 122.972656 233.347656 " fill-opacity="1" fill-rule="nonzero"/></g><path fill="#db7250" d="M 124.558594 229.46875 C 124.191406 229.46875 123.921875 229.605469 123.710938 229.8125 C 123.0625 230.445312 123.046875 231.824219 123.695312 232.488281 C 123.921875 232.722656 124.203125 232.84375 124.484375 232.84375 C 124.757812 232.84375 125.027344 232.726562 125.242188 232.496094 C 125.808594 231.878906 125.875 230.855469 125.472656 230.136719 C 125.253906 229.746094 124.933594 229.492188 124.566406 229.46875 C 124.5625 229.46875 124.558594 229.46875 124.558594 229.46875 Z M 124.558594 229.46875 " fill-opacity="1" fill-rule="nonzero"/><path fill="#db7250" d="M 121.472656 229.46875 C 121.257812 229.46875 121.042969 229.539062 120.855469 229.683594 C 120.371094 230.0625 120.222656 230.589844 120.207031 231.023438 C 120.207031 231.710938 120.378906 232.15625 120.714844 232.511719 C 120.933594 232.738281 121.199219 232.851562 121.46875 232.851562 C 121.734375 232.851562 121.996094 232.738281 122.214844 232.515625 C 122.902344 231.808594 122.890625 230.484375 122.195312 229.777344 C 121.992188 229.574219 121.734375 229.46875 121.472656 229.46875 Z M 121.472656 229.46875 " fill-opacity="1" fill-rule="nonzero"/><path fill="#db7250" d="M 119.269531 231.996094 C 118.964844 231.996094 118.671875 232.171875 118.496094 232.503906 C 118.199219 233.082031 118.386719 233.972656 118.890625 234.382812 C 119.074219 234.53125 119.273438 234.605469 119.464844 234.605469 C 119.703125 234.605469 119.933594 234.492188 120.113281 234.265625 C 120.292969 234.042969 120.367188 233.773438 120.375 233.4375 C 120.355469 233.046875 120.253906 232.640625 119.941406 232.308594 C 119.742188 232.097656 119.5 231.996094 119.269531 231.996094 Z M 119.269531 231.996094 " fill-opacity="1" fill-rule="nonzero"/><path fill="#db7250" d="M 126.640625 231.992188 C 126.34375 231.992188 126.105469 232.160156 125.921875 232.398438 C 125.570312 232.847656 125.46875 233.363281 125.636719 233.910156 C 125.773438 234.371094 126.109375 234.601562 126.460938 234.601562 C 126.707031 234.601562 126.957031 234.492188 127.160156 234.269531 C 127.449219 233.945312 127.558594 233.558594 127.585938 233.117188 C 127.574219 233.027344 127.566406 232.914062 127.539062 232.808594 C 127.445312 232.421875 127.253906 232.113281 126.839844 232.015625 C 126.769531 232 126.703125 231.992188 126.640625 231.992188 Z M 126.640625 231.992188 " fill-opacity="1" fill-rule="nonzero"/><g clip-path="url(#923ec869cc)"><path fill="#db7250" d="M 139.03125 233.347656 C 138.195312 233.347656 137.398438 233.898438 137.160156 234.824219 C 137.132812 234.929688 137.082031 234.992188 136.988281 235.039062 C 136.210938 235.4375 135.804688 236.347656 136.019531 237.1875 C 136.25 238.105469 137.03125 238.664062 137.875 238.664062 C 138.21875 238.664062 138.570312 238.570312 138.902344 238.371094 C 138.949219 238.34375 138.988281 238.324219 139.03125 238.324219 C 139.066406 238.324219 139.101562 238.335938 139.140625 238.367188 C 139.445312 238.570312 139.789062 238.65625 140.152344 238.664062 C 140.15625 238.664062 140.15625 238.664062 140.160156 238.664062 C 141.1875 238.664062 142.0625 237.875 142.085938 236.78125 C 142.105469 236.011719 141.742188 235.421875 141.066406 235.042969 C 140.964844 234.984375 140.910156 234.921875 140.886719 234.808594 C 140.792969 234.40625 140.582031 234.066406 140.265625 233.804688 C 139.894531 233.492188 139.457031 233.347656 139.03125 233.347656 Z M 139.03125 233.347656 " fill-opacity="1" fill-rule="nonzero"/></g><path fill="#db7250" d="M 140.617188 229.46875 C 140.25 229.46875 139.980469 229.605469 139.769531 229.8125 C 139.121094 230.445312 139.105469 231.824219 139.753906 232.488281 C 139.980469 232.722656 140.261719 232.84375 140.542969 232.84375 C 140.816406 232.84375 141.085938 232.726562 141.300781 232.496094 C 141.867188 231.878906 141.9375 230.855469 141.53125 230.136719 C 141.3125 229.746094 140.992188 229.492188 140.625 229.46875 C 140.621094 229.46875 140.617188 229.46875 140.617188 229.46875 Z M 140.617188 229.46875 " fill-opacity="1" fill-rule="nonzero"/><path fill="#db7250" d="M 137.53125 229.46875 C 137.316406 229.46875 137.101562 229.539062 136.914062 229.683594 C 136.429688 230.0625 136.28125 230.589844 136.261719 231.023438 C 136.265625 231.710938 136.4375 232.15625 136.773438 232.511719 C 136.992188 232.738281 137.257812 232.851562 137.527344 232.851562 C 137.792969 232.851562 138.054688 232.738281 138.273438 232.515625 C 138.957031 231.808594 138.949219 230.484375 138.253906 229.777344 C 138.050781 229.574219 137.792969 229.46875 137.53125 229.46875 Z M 137.53125 229.46875 " fill-opacity="1" fill-rule="nonzero"/><path fill="#db7250" d="M 135.328125 231.996094 C 135.023438 231.996094 134.730469 232.171875 134.558594 232.503906 C 134.257812 233.082031 134.445312 233.972656 134.953125 234.382812 C 135.132812 234.53125 135.332031 234.605469 135.523438 234.605469 C 135.761719 234.605469 135.992188 234.492188 136.171875 234.265625 C 136.351562 234.042969 136.425781 233.773438 136.433594 233.4375 C 136.414062 233.046875 136.3125 232.640625 136 232.308594 C 135.800781 232.097656 135.5625 231.996094 135.328125 231.996094 Z M 135.328125 231.996094 " fill-opacity="1" fill-rule="nonzero"/><path fill="#db7250" d="M 142.699219 231.992188 C 142.402344 231.992188 142.167969 232.160156 141.980469 232.398438 C 141.628906 232.847656 141.527344 233.363281 141.691406 233.910156 C 141.832031 234.371094 142.167969 234.601562 142.519531 234.601562 C 142.761719 234.601562 143.015625 234.492188 143.214844 234.269531 C 143.507812 233.945312 143.613281 233.558594 143.644531 233.117188 C 143.632812 233.027344 143.625 232.914062 143.597656 232.808594 C 143.5 232.421875 143.308594 232.113281 142.894531 232.015625 C 142.828125 232 142.761719 231.992188 142.699219 231.992188 Z M 142.699219 231.992188 " fill-opacity="1" fill-rule="nonzero"/><g clip-path="url(#0015c3fdf4)"><path fill="#db7250" d="M 155.089844 233.347656 C 154.257812 233.347656 153.457031 233.898438 153.21875 234.824219 C 153.191406 234.929688 153.140625 234.992188 153.046875 235.039062 C 152.273438 235.4375 151.863281 236.347656 152.078125 237.1875 C 152.308594 238.105469 153.089844 238.664062 153.933594 238.664062 C 154.277344 238.664062 154.632812 238.570312 154.960938 238.371094 C 155.007812 238.34375 155.050781 238.324219 155.089844 238.324219 C 155.125 238.324219 155.160156 238.335938 155.203125 238.367188 C 155.503906 238.570312 155.847656 238.65625 156.210938 238.664062 C 156.214844 238.664062 156.21875 238.664062 156.21875 238.664062 C 157.246094 238.664062 158.121094 237.875 158.144531 236.78125 C 158.164062 236.011719 157.800781 235.421875 157.125 235.042969 C 157.023438 234.984375 156.972656 234.921875 156.945312 234.808594 C 156.851562 234.40625 156.644531 234.066406 156.324219 233.804688 C 155.949219 233.492188 155.515625 233.347656 155.089844 233.347656 Z M 155.089844 233.347656 " fill-opacity="1" fill-rule="nonzero"/></g><path fill="#db7250" d="M 156.675781 229.46875 C 156.308594 229.46875 156.039062 229.605469 155.828125 229.8125 C 155.179688 230.445312 155.164062 231.824219 155.8125 232.488281 C 156.039062 232.722656 156.320312 232.84375 156.601562 232.84375 C 156.875 232.84375 157.144531 232.726562 157.359375 232.496094 C 157.925781 231.878906 157.996094 230.855469 157.589844 230.136719 C 157.371094 229.746094 157.050781 229.492188 156.683594 229.46875 C 156.679688 229.46875 156.675781 229.46875 156.675781 229.46875 Z M 156.675781 229.46875 " fill-opacity="1" fill-rule="nonzero"/><path fill="#db7250" d="M 153.589844 229.46875 C 153.375 229.46875 153.160156 229.539062 152.972656 229.683594 C 152.488281 230.0625 152.339844 230.589844 152.324219 231.023438 C 152.324219 231.710938 152.496094 232.15625 152.835938 232.511719 C 153.050781 232.738281 153.316406 232.851562 153.585938 232.851562 C 153.851562 232.851562 154.113281 232.738281 154.332031 232.515625 C 155.019531 231.808594 155.007812 230.484375 154.3125 229.777344 C 154.109375 229.574219 153.851562 229.46875 153.589844 229.46875 Z M 153.589844 229.46875 " fill-opacity="1" fill-rule="nonzero"/><path fill="#db7250" d="M 151.386719 231.996094 C 151.082031 231.996094 150.789062 232.171875 150.617188 232.503906 C 150.316406 233.082031 150.503906 233.972656 151.011719 234.382812 C 151.195312 234.53125 151.390625 234.605469 151.585938 234.605469 C 151.824219 234.605469 152.050781 234.492188 152.234375 234.265625 C 152.414062 234.042969 152.484375 233.773438 152.492188 233.4375 C 152.476562 233.046875 152.371094 232.640625 152.058594 232.308594 C 151.859375 232.097656 151.621094 231.996094 151.386719 231.996094 Z M 151.386719 231.996094 " fill-opacity="1" fill-rule="nonzero"/><path fill="#db7250" d="M 158.757812 231.992188 C 158.464844 231.992188 158.226562 232.160156 158.039062 232.398438 C 157.6875 232.847656 157.585938 233.363281 157.753906 233.910156 C 157.890625 234.371094 158.226562 234.601562 158.578125 234.601562 C 158.824219 234.601562 159.074219 234.492188 159.273438 234.269531 C 159.566406 233.945312 159.675781 233.558594 159.703125 233.117188 C 159.691406 233.027344 159.683594 232.914062 159.65625 232.808594 C 159.5625 232.421875 159.367188 232.113281 158.957031 232.015625 C 158.886719 232 158.824219 231.992188 158.757812 231.992188 Z M 158.757812 231.992188 " fill-opacity="1" fill-rule="nonzero"/><g clip-path="url(#8df86e9928)"><path fill="#db7250" d="M 171.148438 233.347656 C 170.3125 233.347656 169.515625 233.898438 169.277344 234.824219 C 169.25 234.929688 169.199219 234.992188 169.105469 235.039062 C 168.328125 235.4375 167.921875 236.347656 168.136719 237.1875 C 168.367188 238.105469 169.148438 238.664062 169.992188 238.664062 C 170.335938 238.664062 170.691406 238.570312 171.019531 238.371094 C 171.066406 238.34375 171.109375 238.324219 171.148438 238.324219 C 171.183594 238.324219 171.21875 238.335938 171.261719 238.367188 C 171.5625 238.570312 171.90625 238.65625 172.269531 238.664062 C 172.273438 238.664062 172.273438 238.664062 172.277344 238.664062 C 173.304688 238.664062 174.179688 237.875 174.203125 236.78125 C 174.222656 236.011719 173.859375 235.421875 173.183594 235.042969 C 173.082031 234.984375 173.03125 234.921875 173.003906 234.808594 C 172.910156 234.40625 172.703125 234.066406 172.382812 233.804688 C 172.011719 233.492188 171.574219 233.347656 171.148438 233.347656 Z M 171.148438 233.347656 " fill-opacity="1" fill-rule="nonzero"/></g><path fill="#db7250" d="M 172.734375 229.46875 C 172.367188 229.46875 172.097656 229.605469 171.886719 229.8125 C 171.238281 230.445312 171.222656 231.824219 171.871094 232.488281 C 172.097656 232.722656 172.378906 232.84375 172.660156 232.84375 C 172.933594 232.84375 173.203125 232.726562 173.417969 232.496094 C 173.984375 231.878906 174.054688 230.855469 173.648438 230.136719 C 173.429688 229.746094 173.109375 229.492188 172.742188 229.46875 C 172.738281 229.46875 172.738281 229.46875 172.734375 229.46875 Z M 172.734375 229.46875 " fill-opacity="1" fill-rule="nonzero"/><path fill="#db7250" d="M 169.648438 229.46875 C 169.433594 229.46875 169.21875 229.539062 169.035156 229.683594 C 168.546875 230.0625 168.398438 230.589844 168.382812 231.023438 C 168.382812 231.710938 168.554688 232.15625 168.894531 232.511719 C 169.109375 232.738281 169.378906 232.851562 169.644531 232.851562 C 169.910156 232.851562 170.175781 232.738281 170.390625 232.515625 C 171.078125 231.808594 171.066406 230.484375 170.371094 229.777344 C 170.167969 229.574219 169.910156 229.46875 169.648438 229.46875 Z M 169.648438 229.46875 " fill-opacity="1" fill-rule="nonzero"/><path fill="#db7250" d="M 167.445312 231.996094 C 167.140625 231.996094 166.847656 232.171875 166.675781 232.503906 C 166.375 233.082031 166.5625 233.972656 167.070312 234.382812 C 167.253906 234.53125 167.449219 234.605469 167.644531 234.605469 C 167.882812 234.605469 168.113281 234.492188 168.292969 234.265625 C 168.472656 234.042969 168.546875 233.773438 168.550781 233.4375 C 168.535156 233.046875 168.429688 232.640625 168.117188 232.308594 C 167.917969 232.097656 167.679688 231.996094 167.445312 231.996094 Z M 167.445312 231.996094 " fill-opacity="1" fill-rule="nonzero"/><path fill="#db7250" d="M 174.816406 231.992188 C 174.523438 231.992188 174.285156 232.160156 174.097656 232.398438 C 173.746094 232.847656 173.648438 233.363281 173.8125 233.910156 C 173.949219 234.371094 174.285156 234.601562 174.636719 234.601562 C 174.882812 234.601562 175.132812 234.492188 175.335938 234.269531 C 175.625 233.945312 175.734375 233.558594 175.761719 233.117188 C 175.75 233.027344 175.742188 232.914062 175.714844 232.808594 C 175.621094 232.421875 175.429688 232.113281 175.015625 232.015625 C 174.945312 232 174.882812 231.992188 174.816406 231.992188 Z M 174.816406 231.992188 " fill-opacity="1" fill-rule="nonzero"/><g clip-path="url(#765bfbccb1)"><path fill="#db7250" d="M 187.207031 233.347656 C 186.375 233.347656 185.574219 233.898438 185.335938 234.824219 C 185.308594 234.929688 185.261719 234.992188 185.164062 235.039062 C 184.390625 235.4375 183.980469 236.347656 184.195312 237.1875 C 184.429688 238.105469 185.207031 238.664062 186.050781 238.664062 C 186.394531 238.664062 186.75 238.570312 187.078125 238.371094 C 187.128906 238.34375 187.167969 238.324219 187.207031 238.324219 C 187.242188 238.324219 187.277344 238.335938 187.320312 238.367188 C 187.621094 238.570312 187.964844 238.65625 188.328125 238.664062 C 188.332031 238.664062 188.335938 238.664062 188.335938 238.664062 C 189.363281 238.664062 190.238281 237.875 190.265625 236.78125 C 190.28125 236.011719 189.917969 235.421875 189.242188 235.042969 C 189.140625 234.984375 189.089844 234.921875 189.0625 234.808594 C 188.96875 234.40625 188.761719 234.066406 188.441406 233.804688 C 188.070312 233.492188 187.632812 233.347656 187.207031 233.347656 Z M 187.207031 233.347656 " fill-opacity="1" fill-rule="nonzero"/></g><path fill="#db7250" d="M 188.792969 229.46875 C 188.429688 229.46875 188.15625 229.605469 187.945312 229.8125 C 187.300781 230.445312 187.28125 231.824219 187.929688 232.488281 C 188.15625 232.722656 188.4375 232.84375 188.71875 232.84375 C 188.992188 232.84375 189.261719 232.726562 189.476562 232.496094 C 190.042969 231.878906 190.113281 230.855469 189.710938 230.136719 C 189.492188 229.746094 189.171875 229.492188 188.800781 229.46875 C 188.796875 229.46875 188.796875 229.46875 188.792969 229.46875 Z M 188.792969 229.46875 " fill-opacity="1" fill-rule="nonzero"/><path fill="#db7250" d="M 185.707031 229.46875 C 185.492188 229.46875 185.277344 229.539062 185.089844 229.683594 C 184.605469 230.0625 184.457031 230.589844 184.441406 231.023438 C 184.441406 231.710938 184.613281 232.15625 184.953125 232.511719 C 185.167969 232.738281 185.4375 232.851562 185.703125 232.851562 C 185.96875 232.851562 186.234375 232.738281 186.449219 232.515625 C 187.136719 231.808594 187.125 230.484375 186.429688 229.777344 C 186.226562 229.574219 185.96875 229.46875 185.707031 229.46875 Z M 185.707031 229.46875 " fill-opacity="1" fill-rule="nonzero"/><path fill="#db7250" d="M 183.503906 231.996094 C 183.199219 231.996094 182.90625 232.171875 182.734375 232.503906 C 182.433594 233.082031 182.621094 233.972656 183.128906 234.382812 C 183.3125 234.53125 183.507812 234.605469 183.703125 234.605469 C 183.941406 234.605469 184.171875 234.492188 184.351562 234.265625 C 184.53125 234.042969 184.605469 233.773438 184.609375 233.4375 C 184.59375 233.046875 184.488281 232.640625 184.175781 232.308594 C 183.976562 232.097656 183.738281 231.996094 183.503906 231.996094 Z M 183.503906 231.996094 " fill-opacity="1" fill-rule="nonzero"/><path fill="#db7250" d="M 190.875 231.992188 C 190.582031 231.992188 190.34375 232.160156 190.15625 232.398438 C 189.804688 232.847656 189.707031 233.363281 189.871094 233.910156 C 190.007812 234.371094 190.34375 234.601562 190.695312 234.601562 C 190.941406 234.601562 191.191406 234.492188 191.394531 234.269531 C 191.683594 233.945312 191.792969 233.558594 191.820312 233.117188 C 191.808594 233.027344 191.800781 232.914062 191.773438 232.808594 C 191.679688 232.421875 191.488281 232.113281 191.074219 232.015625 C 191.007812 232 190.941406 231.992188 190.875 231.992188 Z M 190.875 231.992188 " fill-opacity="1" fill-rule="nonzero"/><g clip-path="url(#7d7d0a1f83)"><path fill="#db7250" d="M 203.265625 233.347656 C 202.433594 233.347656 201.632812 233.898438 201.398438 234.824219 C 201.371094 234.929688 201.320312 234.992188 201.222656 235.039062 C 200.449219 235.4375 200.039062 236.347656 200.253906 237.1875 C 200.488281 238.105469 201.269531 238.664062 202.109375 238.664062 C 202.453125 238.664062 202.808594 238.570312 203.140625 238.371094 C 203.1875 238.34375 203.226562 238.324219 203.265625 238.324219 C 203.300781 238.324219 203.335938 238.335938 203.378906 238.367188 C 203.683594 238.570312 204.023438 238.65625 204.390625 238.664062 C 204.390625 238.664062 204.394531 238.664062 204.398438 238.664062 C 205.425781 238.664062 206.296875 237.875 206.324219 236.78125 C 206.34375 236.011719 205.976562 235.421875 205.304688 235.042969 C 205.199219 234.984375 205.148438 234.921875 205.121094 234.808594 C 205.03125 234.40625 204.820312 234.066406 204.503906 233.804688 C 204.128906 233.492188 203.691406 233.347656 203.265625 233.347656 Z M 203.265625 233.347656 " fill-opacity="1" fill-rule="nonzero"/></g><path fill="#db7250" d="M 204.851562 229.46875 C 204.488281 229.46875 204.214844 229.605469 204.003906 229.8125 C 203.359375 230.445312 203.339844 231.824219 203.988281 232.488281 C 204.214844 232.722656 204.496094 232.84375 204.777344 232.84375 C 205.050781 232.84375 205.320312 232.726562 205.535156 232.496094 C 206.101562 231.878906 206.171875 230.855469 205.765625 230.136719 C 205.550781 229.746094 205.226562 229.492188 204.859375 229.46875 C 204.855469 229.46875 204.855469 229.46875 204.851562 229.46875 Z M 204.851562 229.46875 " fill-opacity="1" fill-rule="nonzero"/><path fill="#db7250" d="M 201.765625 229.46875 C 201.550781 229.46875 201.335938 229.539062 201.152344 229.683594 C 200.664062 230.0625 200.515625 230.589844 200.5 231.023438 C 200.5 231.710938 200.671875 232.15625 201.011719 232.511719 C 201.226562 232.738281 201.496094 232.851562 201.761719 232.851562 C 202.027344 232.851562 202.292969 232.738281 202.507812 232.515625 C 203.195312 231.808594 203.183594 230.484375 202.488281 229.777344 C 202.285156 229.574219 202.027344 229.46875 201.765625 229.46875 Z M 201.765625 229.46875 " fill-opacity="1" fill-rule="nonzero"/><path fill="#db7250" d="M 199.5625 231.996094 C 199.257812 231.996094 198.964844 232.171875 198.792969 232.503906 C 198.496094 233.082031 198.683594 233.972656 199.1875 234.382812 C 199.371094 234.53125 199.570312 234.605469 199.761719 234.605469 C 200 234.605469 200.230469 234.492188 200.410156 234.265625 C 200.589844 234.042969 200.664062 233.773438 200.667969 233.4375 C 200.652344 233.046875 200.546875 232.640625 200.234375 232.308594 C 200.035156 232.097656 199.796875 231.996094 199.5625 231.996094 Z M 199.5625 231.996094 " fill-opacity="1" fill-rule="nonzero"/><path fill="#db7250" d="M 206.9375 231.992188 C 206.640625 231.992188 206.402344 232.160156 206.214844 232.398438 C 205.863281 232.847656 205.765625 233.363281 205.929688 233.910156 C 206.066406 234.371094 206.402344 234.601562 206.757812 234.601562 C 207 234.601562 207.253906 234.492188 207.453125 234.269531 C 207.746094 233.945312 207.851562 233.558594 207.882812 233.117188 C 207.867188 233.027344 207.859375 232.914062 207.832031 232.808594 C 207.738281 232.421875 207.546875 232.113281 207.132812 232.015625 C 207.0625 232 207 231.992188 206.9375 231.992188 Z M 206.9375 231.992188 " fill-opacity="1" fill-rule="nonzero"/><g clip-path="url(#fe4d8fda62)"><path fill="#db7250" d="M 219.324219 233.347656 C 218.492188 233.347656 217.691406 233.898438 217.457031 234.824219 C 217.429688 234.929688 217.378906 234.992188 217.28125 235.039062 C 216.507812 235.4375 216.097656 236.347656 216.3125 237.1875 C 216.546875 238.105469 217.328125 238.664062 218.167969 238.664062 C 218.511719 238.664062 218.867188 238.570312 219.199219 238.371094 C 219.246094 238.34375 219.285156 238.324219 219.324219 238.324219 C 219.359375 238.324219 219.394531 238.335938 219.4375 238.367188 C 219.738281 238.570312 220.082031 238.65625 220.449219 238.664062 C 220.449219 238.664062 220.453125 238.664062 220.453125 238.664062 C 221.484375 238.664062 222.355469 237.875 222.382812 236.78125 C 222.398438 236.011719 222.035156 235.421875 221.363281 235.042969 C 221.257812 234.984375 221.207031 234.921875 221.179688 234.808594 C 221.089844 234.40625 220.878906 234.066406 220.5625 233.804688 C 220.1875 233.492188 219.75 233.347656 219.324219 233.347656 Z M 219.324219 233.347656 " fill-opacity="1" fill-rule="nonzero"/></g><path fill="#db7250" d="M 220.910156 229.46875 C 220.546875 229.46875 220.273438 229.605469 220.0625 229.8125 C 219.417969 230.445312 219.402344 231.824219 220.046875 232.488281 C 220.273438 232.722656 220.558594 232.84375 220.835938 232.84375 C 221.109375 232.84375 221.378906 232.726562 221.597656 232.496094 C 222.164062 231.878906 222.230469 230.855469 221.828125 230.136719 C 221.609375 229.746094 221.289062 229.492188 220.917969 229.46875 C 220.917969 229.46875 220.914062 229.46875 220.910156 229.46875 Z M 220.910156 229.46875 " fill-opacity="1" fill-rule="nonzero"/><path fill="#db7250" d="M 217.824219 229.46875 C 217.609375 229.46875 217.394531 229.539062 217.210938 229.683594 C 216.722656 230.0625 216.574219 230.589844 216.558594 231.023438 C 216.5625 231.710938 216.730469 232.15625 217.070312 232.511719 C 217.285156 232.738281 217.554688 232.851562 217.820312 232.851562 C 218.085938 232.851562 218.351562 232.738281 218.566406 232.515625 C 219.253906 231.808594 219.246094 230.484375 218.546875 229.777344 C 218.347656 229.574219 218.085938 229.46875 217.824219 229.46875 Z M 217.824219 229.46875 " fill-opacity="1" fill-rule="nonzero"/><path fill="#db7250" d="M 215.621094 231.996094 C 215.316406 231.996094 215.023438 232.171875 214.851562 232.503906 C 214.554688 233.082031 214.738281 233.972656 215.246094 234.382812 C 215.429688 234.53125 215.625 234.605469 215.820312 234.605469 C 216.058594 234.605469 216.289062 234.492188 216.46875 234.265625 C 216.648438 234.042969 216.722656 233.773438 216.726562 233.4375 C 216.710938 233.046875 216.605469 232.640625 216.292969 232.308594 C 216.09375 232.097656 215.855469 231.996094 215.621094 231.996094 Z M 215.621094 231.996094 " fill-opacity="1" fill-rule="nonzero"/><path fill="#db7250" d="M 222.996094 231.992188 C 222.699219 231.992188 222.460938 232.160156 222.273438 232.398438 C 221.921875 232.847656 221.824219 233.363281 221.988281 233.910156 C 222.128906 234.371094 222.460938 234.601562 222.816406 234.601562 C 223.058594 234.601562 223.3125 234.492188 223.511719 234.269531 C 223.804688 233.945312 223.910156 233.558594 223.941406 233.117188 C 223.925781 233.027344 223.917969 232.914062 223.894531 232.808594 C 223.796875 232.421875 223.605469 232.113281 223.191406 232.015625 C 223.125 232 223.058594 231.992188 222.996094 231.992188 Z M 222.996094 231.992188 " fill-opacity="1" fill-rule="nonzero"/><g clip-path="url(#75384bbb2b)"><path fill="#db7250" d="M 235.382812 233.347656 C 234.550781 233.347656 233.75 233.898438 233.515625 234.824219 C 233.488281 234.929688 233.4375 234.992188 233.339844 235.039062 C 232.566406 235.4375 232.15625 236.347656 232.371094 237.1875 C 232.605469 238.105469 233.386719 238.664062 234.226562 238.664062 C 234.574219 238.664062 234.925781 238.570312 235.257812 238.371094 C 235.304688 238.34375 235.34375 238.324219 235.382812 238.324219 C 235.417969 238.324219 235.453125 238.335938 235.496094 238.367188 C 235.800781 238.570312 236.144531 238.65625 236.507812 238.664062 C 236.507812 238.664062 236.511719 238.664062 236.515625 238.664062 C 237.542969 238.664062 238.414062 237.875 238.441406 236.78125 C 238.457031 236.011719 238.097656 235.421875 237.421875 235.042969 C 237.316406 234.984375 237.265625 234.921875 237.238281 234.808594 C 237.148438 234.40625 236.9375 234.066406 236.621094 233.804688 C 236.246094 233.492188 235.8125 233.347656 235.382812 233.347656 Z M 235.382812 233.347656 " fill-opacity="1" fill-rule="nonzero"/></g><path fill="#db7250" d="M 236.96875 229.46875 C 236.605469 229.46875 236.335938 229.605469 236.121094 229.8125 C 235.476562 230.445312 235.460938 231.824219 236.109375 232.488281 C 236.335938 232.722656 236.617188 232.84375 236.894531 232.84375 C 237.167969 232.84375 237.441406 232.726562 237.65625 232.496094 C 238.222656 231.878906 238.289062 230.855469 237.886719 230.136719 C 237.667969 229.746094 237.347656 229.492188 236.976562 229.46875 C 236.972656 229.46875 236.972656 229.46875 236.96875 229.46875 Z M 236.96875 229.46875 " fill-opacity="1" fill-rule="nonzero"/><path fill="#db7250" d="M 233.882812 229.46875 C 233.667969 229.46875 233.453125 229.539062 233.269531 229.683594 C 232.78125 230.0625 232.632812 230.589844 232.617188 231.023438 C 232.621094 231.710938 232.789062 232.15625 233.128906 232.511719 C 233.34375 232.738281 233.613281 232.851562 233.878906 232.851562 C 234.144531 232.851562 234.410156 232.738281 234.625 232.515625 C 235.3125 231.808594 235.304688 230.484375 234.605469 229.777344 C 234.40625 229.574219 234.144531 229.46875 233.882812 229.46875 Z M 233.882812 229.46875 " fill-opacity="1" fill-rule="nonzero"/><path fill="#db7250" d="M 231.679688 231.996094 C 231.375 231.996094 231.082031 232.171875 230.910156 232.503906 C 230.613281 233.082031 230.800781 233.972656 231.304688 234.382812 C 231.488281 234.53125 231.6875 234.605469 231.878906 234.605469 C 232.117188 234.605469 232.347656 234.492188 232.527344 234.265625 C 232.707031 234.042969 232.78125 233.773438 232.785156 233.4375 C 232.769531 233.046875 232.664062 232.640625 232.351562 232.308594 C 232.15625 232.097656 231.914062 231.996094 231.679688 231.996094 Z M 231.679688 231.996094 " fill-opacity="1" fill-rule="nonzero"/><path fill="#db7250" d="M 239.054688 231.992188 C 238.757812 231.992188 238.519531 232.160156 238.335938 232.398438 C 237.980469 232.847656 237.882812 233.363281 238.046875 233.910156 C 238.1875 234.371094 238.519531 234.601562 238.875 234.601562 C 239.117188 234.601562 239.371094 234.492188 239.570312 234.269531 C 239.863281 233.945312 239.96875 233.558594 240 233.117188 C 239.984375 233.027344 239.976562 232.914062 239.953125 232.808594 C 239.855469 232.421875 239.664062 232.113281 239.25 232.015625 C 239.183594 232 239.117188 231.992188 239.054688 231.992188 Z M 239.054688 231.992188 " fill-opacity="1" fill-rule="nonzero"/><g clip-path="url(#30acd6a97f)"><path fill="#db7250" d="M 251.445312 233.347656 C 250.609375 233.347656 249.808594 233.898438 249.574219 234.824219 C 249.546875 234.929688 249.496094 234.992188 249.398438 235.039062 C 248.625 235.4375 248.21875 236.347656 248.429688 237.1875 C 248.664062 238.105469 249.445312 238.664062 250.289062 238.664062 C 250.632812 238.664062 250.984375 238.570312 251.316406 238.371094 C 251.363281 238.34375 251.402344 238.324219 251.445312 238.324219 C 251.476562 238.324219 251.511719 238.335938 251.554688 238.367188 C 251.859375 238.570312 252.203125 238.65625 252.566406 238.664062 C 252.570312 238.664062 252.570312 238.664062 252.574219 238.664062 C 253.601562 238.664062 254.472656 237.875 254.5 236.78125 C 254.519531 236.011719 254.15625 235.421875 253.480469 235.042969 C 253.378906 234.984375 253.324219 234.921875 253.300781 234.808594 C 253.207031 234.40625 252.996094 234.066406 252.679688 233.804688 C 252.304688 233.492188 251.871094 233.347656 251.445312 233.347656 Z M 251.445312 233.347656 " fill-opacity="1" fill-rule="nonzero"/></g><path fill="#db7250" d="M 253.027344 229.46875 C 252.664062 229.46875 252.394531 229.605469 252.179688 229.8125 C 251.535156 230.445312 251.519531 231.824219 252.164062 232.488281 C 252.394531 232.722656 252.675781 232.84375 252.953125 232.84375 C 253.226562 232.84375 253.496094 232.726562 253.714844 232.496094 C 254.28125 231.878906 254.347656 230.855469 253.945312 230.136719 C 253.726562 229.746094 253.40625 229.492188 253.035156 229.46875 C 253.035156 229.46875 253.03125 229.46875 253.027344 229.46875 Z M 253.027344 229.46875 " fill-opacity="1" fill-rule="nonzero"/><path fill="#db7250" d="M 249.945312 229.46875 C 249.730469 229.46875 249.511719 229.539062 249.328125 229.683594 C 248.839844 230.0625 248.691406 230.589844 248.675781 231.023438 C 248.679688 231.710938 248.847656 232.15625 249.1875 232.511719 C 249.40625 232.738281 249.671875 232.851562 249.941406 232.851562 C 250.203125 232.851562 250.46875 232.738281 250.683594 232.515625 C 251.371094 231.808594 251.363281 230.484375 250.664062 229.777344 C 250.464844 229.574219 250.203125 229.46875 249.945312 229.46875 Z M 249.945312 229.46875 " fill-opacity="1" fill-rule="nonzero"/><path fill="#db7250" d="M 247.742188 231.996094 C 247.4375 231.996094 247.144531 232.171875 246.96875 232.503906 C 246.671875 233.082031 246.859375 233.972656 247.363281 234.382812 C 247.546875 234.53125 247.746094 234.605469 247.9375 234.605469 C 248.175781 234.605469 248.40625 234.492188 248.585938 234.265625 C 248.765625 234.042969 248.839844 233.773438 248.847656 233.4375 C 248.828125 233.046875 248.726562 232.640625 248.410156 232.308594 C 248.214844 232.097656 247.972656 231.996094 247.742188 231.996094 Z M 247.742188 231.996094 " fill-opacity="1" fill-rule="nonzero"/><path fill="#db7250" d="M 255.113281 231.992188 C 254.816406 231.992188 254.578125 232.160156 254.390625 232.398438 C 254.039062 232.847656 253.941406 233.363281 254.105469 233.910156 C 254.242188 234.371094 254.578125 234.601562 254.933594 234.601562 C 255.175781 234.601562 255.429688 234.492188 255.628906 234.269531 C 255.921875 233.945312 256.027344 233.558594 256.058594 233.117188 C 256.042969 233.027344 256.035156 232.914062 256.011719 232.808594 C 255.914062 232.421875 255.722656 232.113281 255.308594 232.015625 C 255.242188 232 255.175781 231.992188 255.113281 231.992188 Z M 255.113281 231.992188 " fill-opacity="1" fill-rule="nonzero"/><g clip-path="url(#1a4c6426bd)"><path fill="#db7250" d="M 267.503906 233.347656 C 266.667969 233.347656 265.867188 233.898438 265.632812 234.824219 C 265.605469 234.929688 265.554688 234.992188 265.457031 235.039062 C 264.683594 235.4375 264.277344 236.347656 264.488281 237.1875 C 264.722656 238.105469 265.503906 238.664062 266.347656 238.664062 C 266.691406 238.664062 267.042969 238.570312 267.375 238.371094 C 267.421875 238.34375 267.460938 238.324219 267.503906 238.324219 C 267.535156 238.324219 267.570312 238.335938 267.613281 238.367188 C 267.917969 238.570312 268.261719 238.65625 268.625 238.664062 C 268.628906 238.664062 268.628906 238.664062 268.632812 238.664062 C 269.660156 238.664062 270.53125 237.875 270.558594 236.78125 C 270.578125 236.011719 270.214844 235.421875 269.539062 235.042969 C 269.433594 234.984375 269.382812 234.921875 269.359375 234.808594 C 269.265625 234.40625 269.054688 234.066406 268.738281 233.804688 C 268.363281 233.492188 267.929688 233.347656 267.503906 233.347656 Z M 267.503906 233.347656 " fill-opacity="1" fill-rule="nonzero"/></g><path fill="#db7250" d="M 269.085938 229.46875 C 268.722656 229.46875 268.453125 229.605469 268.242188 229.8125 C 267.59375 230.445312 267.578125 231.824219 268.226562 232.488281 C 268.453125 232.722656 268.734375 232.84375 269.015625 232.84375 C 269.285156 232.84375 269.558594 232.726562 269.773438 232.496094 C 270.339844 231.878906 270.40625 230.855469 270.003906 230.136719 C 269.785156 229.746094 269.464844 229.492188 269.097656 229.46875 C 269.09375 229.46875 269.089844 229.46875 269.085938 229.46875 Z M 269.085938 229.46875 " fill-opacity="1" fill-rule="nonzero"/><path fill="#db7250" d="M 266.003906 229.46875 C 265.789062 229.46875 265.574219 229.539062 265.386719 229.683594 C 264.898438 230.0625 264.75 230.589844 264.734375 231.023438 C 264.738281 231.710938 264.90625 232.15625 265.246094 232.511719 C 265.464844 232.738281 265.730469 232.851562 266 232.851562 C 266.261719 232.851562 266.527344 232.738281 266.742188 232.515625 C 267.429688 231.808594 267.421875 230.484375 266.726562 229.777344 C 266.523438 229.574219 266.261719 229.46875 266.003906 229.46875 Z M 266.003906 229.46875 " fill-opacity="1" fill-rule="nonzero"/><path fill="#db7250" d="M 263.800781 231.996094 C 263.496094 231.996094 263.203125 232.171875 263.027344 232.503906 C 262.730469 233.082031 262.917969 233.972656 263.421875 234.382812 C 263.605469 234.53125 263.804688 234.605469 263.996094 234.605469 C 264.234375 234.605469 264.464844 234.492188 264.644531 234.265625 C 264.824219 234.042969 264.898438 233.773438 264.902344 233.4375 C 264.886719 233.046875 264.78125 232.640625 264.472656 232.308594 C 264.273438 232.097656 264.03125 231.996094 263.800781 231.996094 Z M 263.800781 231.996094 " fill-opacity="1" fill-rule="nonzero"/><g clip-path="url(#3f112cdc89)"><path fill="#db7250" d="M 271.171875 231.992188 C 270.875 231.992188 270.640625 232.160156 270.453125 232.398438 C 270.101562 232.847656 270 233.363281 270.164062 233.910156 C 270.304688 234.371094 270.640625 234.601562 270.992188 234.601562 C 271.234375 234.601562 271.488281 234.492188 271.6875 234.269531 C 271.980469 233.945312 272.085938 233.558594 272.117188 233.117188 C 272.101562 233.027344 272.09375 232.914062 272.070312 232.808594 C 271.972656 232.421875 271.78125 232.113281 271.367188 232.015625 C 271.300781 232 271.234375 231.992188 271.171875 231.992188 Z M 271.171875 231.992188 " fill-opacity="1" fill-rule="nonzero"/></g><g fill="#d46b49" fill-opacity="1"><g transform="translate(102.456288, 271.716325)"><g><path d="M 9.324219 -20.660156 L 0.296875 -20.660156 L 0.296875 -17.558594 L 1.210938 -17.558594 L 1.210938 -3.097656 L 0.296875 -3.097656 L 0.296875 0 L 9.324219 0 C 11.6875 0 13.636719 -2.035156 13.636719 -4.425781 L 13.636719 -6.875 C 13.636719 -8.234375 12.984375 -9.503906 12.011719 -10.328125 C 12.984375 -11.15625 13.636719 -12.425781 13.636719 -13.78125 L 13.636719 -16.230469 C 13.636719 -18.621094 11.6875 -20.660156 9.324219 -20.660156 Z M 4.75 -17.558594 L 8.410156 -17.558594 C 9.355469 -17.558594 10.09375 -16.761719 10.09375 -15.757812 L 10.09375 -13.515625 C 10.09375 -12.484375 9.355469 -11.65625 8.410156 -11.65625 L 4.75 -11.65625 Z M 4.75 -9 L 8.410156 -9 C 9.355469 -9 10.09375 -8.175781 10.09375 -7.140625 L 10.09375 -4.898438 C 10.09375 -3.894531 9.355469 -3.097656 8.410156 -3.097656 L 4.75 -3.097656 Z M 4.75 -9 "/></g></g></g><g fill="#d46b49" fill-opacity="1"><g transform="translate(117.092194, 271.716325)"><g><path d="M 5.785156 -15.226562 C 2.714844 -15.226562 1.03125 -13.636719 1.03125 -10.800781 L 1.03125 -3.953125 C 1.03125 -1.121094 2.714844 0.472656 5.785156 0.472656 C 8.855469 0.472656 10.566406 -1.121094 10.566406 -3.953125 L 10.566406 -10.800781 C 10.566406 -13.636719 8.855469 -15.226562 5.785156 -15.226562 Z M 5.785156 -12.511719 C 6.90625 -12.511719 7.378906 -11.777344 7.378906 -10.890625 L 7.378906 -3.867188 C 7.378906 -2.980469 6.90625 -2.242188 5.785156 -2.242188 C 4.664062 -2.242188 4.191406 -2.980469 4.191406 -3.867188 L 4.191406 -10.890625 C 4.191406 -11.777344 4.664062 -12.511719 5.785156 -12.511719 Z M 5.785156 -12.511719 "/></g></g></g><g fill="#d46b49" fill-opacity="1"><g transform="translate(128.659286, 271.716325)"><g><path d="M 0.296875 -12.042969 L 1.210938 -12.042969 L 1.210938 -2.714844 L 0.296875 -2.714844 L 0.296875 0 L 5.3125 0 L 5.3125 -2.714844 L 4.398438 -2.714844 L 4.398438 -10.890625 C 4.398438 -11.777344 4.839844 -12.511719 5.960938 -12.511719 C 7.113281 -12.511719 7.554688 -11.746094 7.554688 -10.890625 L 7.554688 -7.9375 L 10.742188 -7.9375 L 10.742188 -11.273438 C 10.742188 -13.722656 9.445312 -15.226562 6.964844 -15.226562 C 5.488281 -15.226562 4.457031 -14.695312 3.867188 -13.695312 L 3.484375 -14.757812 L 0.296875 -14.757812 Z M 0.296875 -12.042969 "/></g></g></g><g fill="#d46b49" fill-opacity="1"><g transform="translate(139.990309, 271.716325)"><g><path d="M 5.785156 -15.226562 C 2.714844 -15.226562 1.03125 -13.636719 1.03125 -10.890625 L 1.03125 -3.867188 C 1.03125 -1.121094 2.714844 0.472656 5.785156 0.472656 C 8.855469 0.472656 10.566406 -1.121094 10.566406 -3.867188 L 10.566406 -5.339844 L 7.378906 -5.339844 L 7.378906 -3.867188 C 7.378906 -2.980469 6.90625 -2.242188 5.785156 -2.242188 C 4.664062 -2.242188 4.191406 -2.980469 4.191406 -3.867188 L 4.191406 -10.890625 C 4.191406 -11.777344 4.664062 -12.511719 5.785156 -12.511719 C 6.90625 -12.511719 7.378906 -11.777344 7.378906 -10.890625 L 7.378906 -9.414062 L 10.566406 -9.414062 L 10.566406 -10.890625 C 10.566406 -13.636719 8.855469 -15.226562 5.785156 -15.226562 Z M 5.785156 -15.226562 "/></g></g></g><g fill="#d46b49" fill-opacity="1"><g transform="translate(151.38035, 271.716325)"><g><path d="M 5.785156 -15.226562 C 2.714844 -15.226562 1.03125 -13.636719 1.03125 -10.890625 L 1.03125 -3.867188 C 1.03125 -1.121094 2.714844 0.472656 5.785156 0.472656 C 8.855469 0.472656 10.566406 -1.121094 10.566406 -3.867188 L 10.566406 -4.898438 L 7.378906 -4.898438 L 7.378906 -3.421875 C 7.378906 -2.539062 6.90625 -1.828125 5.785156 -1.828125 C 4.664062 -1.828125 4.191406 -2.539062 4.191406 -3.421875 L 4.191406 -6.257812 L 10.566406 -6.257812 L 10.566406 -10.890625 C 10.566406 -13.636719 8.855469 -15.226562 5.785156 -15.226562 Z M 4.191406 -8.527344 L 4.191406 -11.332031 C 4.191406 -12.21875 4.664062 -12.925781 5.785156 -12.925781 C 6.90625 -12.925781 7.378906 -12.21875 7.378906 -11.332031 L 7.378906 -8.527344 Z M 4.191406 -8.527344 "/></g></g></g><g fill="#d46b49" fill-opacity="1"><g transform="translate(162.947442, 271.716325)"><g><path d="M 0.296875 -17.945312 L 1.210938 -17.945312 L 1.210938 -2.714844 L 0.296875 -2.714844 L 0.296875 0 L 5.3125 0 L 5.3125 -2.714844 L 4.398438 -2.714844 L 4.398438 -20.660156 L 0.296875 -20.660156 Z M 0.296875 -17.945312 "/></g></g></g><g fill="#d46b49" fill-opacity="1"><g transform="translate(168.553936, 271.716325)"><g><path d="M 0.296875 -17.945312 L 1.210938 -17.945312 L 1.210938 -2.714844 L 0.296875 -2.714844 L 0.296875 0 L 5.3125 0 L 5.3125 -2.714844 L 4.398438 -2.714844 L 4.398438 -20.660156 L 0.296875 -20.660156 Z M 0.296875 -17.945312 "/></g></g></g><g fill="#d46b49" fill-opacity="1"><g transform="translate(174.160431, 271.716325)"><g><path d="M 5.785156 -15.226562 C 2.714844 -15.226562 1.03125 -13.636719 1.03125 -10.890625 L 1.03125 -3.867188 C 1.03125 -1.121094 2.714844 0.472656 5.785156 0.472656 C 8.855469 0.472656 10.566406 -1.121094 10.566406 -3.867188 L 10.566406 -4.898438 L 7.378906 -4.898438 L 7.378906 -3.421875 C 7.378906 -2.539062 6.90625 -1.828125 5.785156 -1.828125 C 4.664062 -1.828125 4.191406 -2.539062 4.191406 -3.421875 L 4.191406 -6.257812 L 10.566406 -6.257812 L 10.566406 -10.890625 C 10.566406 -13.636719 8.855469 -15.226562 5.785156 -15.226562 Z M 4.191406 -8.527344 L 4.191406 -11.332031 C 4.191406 -12.21875 4.664062 -12.925781 5.785156 -12.925781 C 6.90625 -12.925781 7.378906 -12.21875 7.378906 -11.332031 L 7.378906 -8.527344 Z M 4.191406 -8.527344 "/></g></g></g><g fill="#d46b49" fill-opacity="1"><g transform="translate(185.727523, 271.716325)"><g/></g></g><g fill="#d46b49" fill-opacity="1"><g transform="translate(191.275, 271.716325)"><g><path d="M 9.207031 -20.660156 L 0.296875 -20.660156 L 0.296875 -17.558594 L 1.210938 -17.558594 L 1.210938 -3.070312 L 0.296875 -3.070312 L 0.296875 0 L 5.667969 0 L 5.667969 -3.070312 L 4.75 -3.070312 L 4.75 -6.550781 L 9.207031 -6.550781 C 11.628906 -6.550781 13.636719 -8.558594 13.636719 -10.980469 L 13.636719 -16.230469 C 13.636719 -18.652344 11.628906 -20.660156 9.207031 -20.660156 Z M 4.75 -17.558594 L 8.261719 -17.558594 C 9.265625 -17.558594 10.09375 -16.761719 10.09375 -15.757812 L 10.09375 -11.449219 C 10.09375 -10.449219 9.265625 -9.652344 8.261719 -9.652344 L 4.75 -9.652344 Z M 4.75 -17.558594 "/></g></g></g><g fill="#d46b49" fill-opacity="1"><g transform="translate(205.910906, 271.716325)"><g><path d="M 5.785156 -15.226562 C 2.714844 -15.226562 1.03125 -13.636719 1.03125 -10.890625 L 1.03125 -3.867188 C 1.03125 -1.121094 2.714844 0.472656 5.785156 0.472656 C 8.855469 0.472656 10.566406 -1.121094 10.566406 -3.867188 L 10.566406 -4.898438 L 7.378906 -4.898438 L 7.378906 -3.421875 C 7.378906 -2.539062 6.90625 -1.828125 5.785156 -1.828125 C 4.664062 -1.828125 4.191406 -2.539062 4.191406 -3.421875 L 4.191406 -6.257812 L 10.566406 -6.257812 L 10.566406 -10.890625 C 10.566406 -13.636719 8.855469 -15.226562 5.785156 -15.226562 Z M 4.191406 -8.527344 L 4.191406 -11.332031 C 4.191406 -12.21875 4.664062 -12.925781 5.785156 -12.925781 C 6.90625 -12.925781 7.378906 -12.21875 7.378906 -11.332031 L 7.378906 -8.527344 Z M 4.191406 -8.527344 "/></g></g></g><g fill="#d46b49" fill-opacity="1"><g transform="translate(217.477998, 271.716325)"><g><path d="M 2.332031 -17.707031 L 2.332031 -14.757812 L 0.296875 -14.757812 L 0.296875 -12.070312 L 2.332031 -12.070312 L 2.332031 -3.421875 C 2.332031 -1.121094 3.511719 0 5.578125 0 L 7.96875 0 L 7.96875 -2.714844 L 6.757812 -2.714844 C 5.871094 -2.714844 5.488281 -3.21875 5.488281 -4.160156 L 5.488281 -12.070312 L 7.96875 -12.070312 L 7.96875 -14.757812 L 5.488281 -14.757812 L 5.488281 -17.707031 Z M 2.332031 -17.707031 "/></g></g></g><g fill="#d46b49" fill-opacity="1"><g transform="translate(225.740208, 271.716325)"><g><path d="M 5.785156 -15.226562 C 2.65625 -15.226562 1.03125 -13.78125 1.03125 -11.332031 L 1.03125 -9.679688 C 1.03125 -8.351562 1.859375 -7.199219 3.128906 -6.816406 L 6.667969 -5.605469 C 7.113281 -5.429688 7.378906 -5.074219 7.378906 -4.574219 L 7.378906 -3.421875 C 7.378906 -2.507812 6.816406 -1.828125 5.785156 -1.828125 C 4.75 -1.828125 4.191406 -2.507812 4.191406 -3.421875 L 4.191406 -4.605469 L 1.03125 -4.605469 L 1.03125 -3.421875 C 1.03125 -1.210938 2.65625 0.472656 5.785156 0.472656 C 8.914062 0.472656 10.566406 -1.210938 10.566406 -3.421875 L 10.566406 -5.074219 C 10.566406 -6.402344 9.710938 -7.554688 8.441406 -7.9375 L 4.929688 -9.148438 C 4.484375 -9.324219 4.191406 -9.679688 4.191406 -10.183594 L 4.191406 -11.332031 C 4.191406 -12.246094 4.75 -12.925781 5.785156 -12.925781 C 6.816406 -12.925781 7.378906 -12.246094 7.378906 -11.332031 L 7.378906 -10.152344 L 10.566406 -10.152344 L 10.566406 -11.332031 C 10.566406 -13.488281 8.914062 -15.226562 5.785156 -15.226562 Z M 5.785156 -15.226562 "/></g></g></g><g fill="#d46b49" fill-opacity="1"><g transform="translate(237.307301, 271.716325)"><g><path d="M 0.296875 -17.945312 L 1.210938 -17.945312 L 1.210938 -2.714844 L 0.296875 -2.714844 L 0.296875 0 L 5.3125 0 L 5.3125 -2.714844 L 4.398438 -2.714844 L 4.398438 -10.890625 C 4.398438 -11.777344 4.839844 -12.511719 5.960938 -12.511719 C 7.113281 -12.511719 7.554688 -11.746094 7.554688 -10.890625 L 7.554688 0 L 11.65625 0 L 11.65625 -2.714844 L 10.742188 -2.714844 L 10.742188 -11.273438 C 10.742188 -13.722656 9.503906 -15.226562 7.023438 -15.226562 C 5.902344 -15.226562 5.015625 -14.933594 4.398438 -14.34375 L 4.398438 -20.660156 L 0.296875 -20.660156 Z M 0.296875 -17.945312 "/></g></g></g><g fill="#d46b49" fill-opacity="1"><g transform="translate(249.228484, 271.716325)"><g><path d="M 5.785156 -15.226562 C 2.714844 -15.226562 1.03125 -13.636719 1.03125 -10.800781 L 1.03125 -3.953125 C 1.03125 -1.121094 2.714844 0.472656 5.785156 0.472656 C 8.855469 0.472656 10.566406 -1.121094 10.566406 -3.953125 L 10.566406 -10.800781 C 10.566406 -13.636719 8.855469 -15.226562 5.785156 -15.226562 Z M 5.785156 -12.511719 C 6.90625 -12.511719 7.378906 -11.777344 7.378906 -10.890625 L 7.378906 -3.867188 C 7.378906 -2.980469 6.90625 -2.242188 5.785156 -2.242188 C 4.664062 -2.242188 4.191406 -2.980469 4.191406 -3.867188 L 4.191406 -10.890625 C 4.191406 -11.777344 4.664062 -12.511719 5.785156 -12.511719 Z M 5.785156 -12.511719 "/></g></g></g><g fill="#d46b49" fill-opacity="1"><g transform="translate(260.795576, 271.716325)"><g><path d="M 0.296875 -12.042969 L 1.210938 -12.042969 L 1.210938 3.1875 L 0.296875 3.1875 L 0.296875 5.902344 L 5.3125 5.902344 L 5.3125 3.1875 L 4.398438 3.1875 L 4.398438 -0.414062 C 5.015625 0.175781 5.902344 0.472656 7.023438 0.472656 C 9.503906 0.472656 10.742188 -1.03125 10.742188 -3.484375 L 10.742188 -11.273438 C 10.742188 -13.78125 9.503906 -15.226562 7.023438 -15.226562 C 5.546875 -15.226562 4.457031 -14.726562 3.867188 -13.722656 L 3.484375 -14.757812 L 0.296875 -14.757812 Z M 4.398438 -9.472656 L 4.398438 -10.890625 C 4.398438 -11.777344 4.75 -12.511719 5.960938 -12.511719 C 7.113281 -12.511719 7.554688 -11.835938 7.554688 -10.890625 L 7.554688 -3.867188 C 7.554688 -3.011719 7.113281 -2.242188 5.960938 -2.242188 C 4.839844 -2.242188 4.398438 -2.980469 4.398438 -3.867188 Z M 4.398438 -9.472656 "/></g></g></g></svg>